/* XPM */
static char * cd_xpm[] = {
"18 18 2 1",
" 	c None",
".	c #ED1414",
"                  ",
"                  ",
"                  ",
"                  ",
"                  ",
"                  ",
"              .   ",
"              .   ",
"    ....  .....   ",
"   ..  . ..   .   ",
"   .     .    .   ",
"   .     .    .   ",
"   .     .    .   ",
"   ..  . ..  ..   ",
"    ....  .....   ",
"                  ",
"                  ",
"                  "};
