/* XPM */
static char * cdBellow_xpm[] = {
"18 18 2 1",
" 	c None",
".	c #F10C0C",
"                  ",
"                  ",
"             .    ",
"             .    ",
"   ....  .....    ",
"  ..  . ..   .    ",
"  .     .    .    ",
"  .     .    .    ",
"  .     .    .    ",
"  ..  . ..  ..    ",
"   ....  .....    ",
"                  ",
"                  ",
"                  ",
"   .    .         ",
"   .    .         ",
"                  ",
"                  "};
