/* XPM */
static char * lcd_xpm[] = {
"18 18 2 1",
" 	c None",
".	c #E74141",
"                  ",
"                  ",
"                  ",
"                  ",
"                  ",
"                  ",
"  .             . ",
"  .             . ",
"  .   ....  ..... ",
"  .  ..  . ..   . ",
"  .  .     .    . ",
"  .  .     .    . ",
"  .  .     .    . ",
"  .  ..  . ..  .. ",
"  .   ....  ..... ",
"                  ",
"                  ",
"                  "};
