/* XPM */
static char * nerdtree_xpm[] = {
"18 18 3 1",
" 	c None",
".	c #982955",
"+	c #0C5021",
"..    .           ",
"...   .           ",
". .   .           ",
". ..  .           ",
".  .  .           ",
".   . .           ",
".   ...           ",
".    ..           ",
".    ..           ",
"++++++++++++++++++",
"     +            ",
"     +            ",
"     +            ",
"     +++++++++++++",
"     +            ",
"     +            ",
"     +            ",
"     +++++++++++++"};
