/* XPM */
static char * refresh_xpm[] = {
"18 18 66 1",
" 	c None",
".	c #000000",
"+	c #0B0000",
"@	c #880C0C",
"#	c #A83737",
"$	c #8C1111",
"%	c #210000",
"&	c #090000",
"*	c #BE5F5F",
"=	c #D48F8F",
"-	c #CC7D7D",
";	c #B65050",
">	c #981F1F",
",	c #140000",
"'	c #010000",
")	c #680000",
"!	c #290000",
"~	c #250000",
"{	c #C26767",
"]	c #B85454",
"^	c #9F2929",
"/	c #630000",
"(	c #520000",
"_	c #340000",
":	c #6A0000",
"<	c #AD4040",
"[	c #961E1E",
"}	c #800303",
"|	c #700000",
"1	c #0F0000",
"2	c #7B0101",
"3	c #A63434",
"4	c #9B2323",
"5	c #730000",
"6	c #060000",
"7	c #5A0000",
"8	c #840707",
"9	c #550000",
"0	c #3C0000",
"a	c #0A0000",
"b	c #220000",
"c	c #A22E2E",
"d	c #890D0D",
"e	c #1F0000",
"f	c #150000",
"g	c #070000",
"h	c #901616",
"i	c #BC5B5B",
"j	c #A43131",
"k	c #020000",
"l	c #C77272",
"m	c #C97676",
"n	c #8E1313",
"o	c #180000",
"p	c #B95656",
"q	c #8B0F0F",
"r	c #410000",
"s	c #350000",
"t	c #6E0000",
"u	c #941B1B",
"v	c #7D0101",
"w	c #2B0000",
"x	c #050000",
"y	c #770000",
"z	c #030000",
"A	c #490000",
"                  ",
"         ....     ",
"       .+@#$%.    ",
"       &*=-;>,.'. ",
"      .)!~{]^/(_. ",
"      ....:<[}|1  ",
"        .234@5|'  ",
"   ..   .6785|9.  ",
"   +0'.   .a9|b   ",
"  ._cde.    .fg   ",
"  .hij@/1.        ",
"  klm<n/b.        ",
"  omp3qb..'.      ",
" .rstuv|bbw.      ",
" ...xy|||/z       ",
"    .aA/w'        ",
"      ...         ",
"                  "};
