/* XPM */
static char * vimcommander_xpm[] = {
"18 18 2 1",
" 	c None",
".	c #0C5021",
".       ..       .",
"        ..        ",
"        ..        ",
"....... .. .......",
"        ..        ",
"        ..        ",
"        ..        ",
"        ..        ",
"....... .. .......",
"        ..        ",
"        ..        ",
"        ..        ",
"        ..        ",
"....... .. .......",
"        ..        ",
"        ..        ",
"        ..        ",
"....... .. ......."};
